# xmcd
#
# Track frame offsets: 
#        150
#        13527
#        27920
#        42720
#        56845
#        70757
#        85050
#        98092
#        112097
#        124212
#
# Disc length: 1913 seconds
#
# Revision: 1
# Processed by: cddbd v1.5PL3 Copyright (c) Steve Scherf et al.
# Submitted via: ExactAudioCopy v0.95a5
#
DISCID=8607770a
DTITLE=Leadbelly - Goodnight Irene
DYEAR=1900
DGENRE=Blues
TTITLE0=Frankie and Albert Part One
TTITLE1=Frankie and Albert Part Two
TTITLE2=Ain't Goin' Down To The Well No Mo'-Goin' Down Old Hannah
TTITLE3=Looky Looky Yonder, Black Belly-Yella Woman's Doorbell
TTITLE4=Dekalb Blues
TTITLE5=The Boll Weevil
TTITLE6=Fannin Street
TTITLE7=Poor Howard-Green Corn
TTITLE8=Goodnight Irene
TTITLE9=John Hardy
EXTD=ID3G: 0
EXTT0=
EXTT1=
EXTT2=
EXTT3=
EXTT4=
EXTT5=
EXTT6=
EXTT7=
EXTT8=
EXTT9=
PLAYORDER=
